<svg xmlns="http://www.w3.org/2000/svg" viewBox="0 0 200 36">
  <path d="M10.3,13.8h1.5V9.8h-1.5V8.3h1.5V6.1h-1.5V4.6h1.5V2.5h1.5v2.1h1.5v1.5h-1.5v2.2h1.5v1.5h-1.5v4h1.5v1.5h-4.5V13.8z M18.3,15.3h-4.5V13.8h4.5V15.3z M18.3,13.8h-4.5v-1.5h4.5V13.8z M20.8,13.8h-1.5V9.8h1.5V8.3h1.5v1.5h1.5V9.8h-1.5v4h1.5v1.5h-4.5V13.8z M28.3,13.8h-4.5V12.3h4.5V13.8z M28.3,12.3h-4.5v-1.5h4.5V12.3z M30.8,12.3h-1.5v-1.5h1.5V12.3z M36.3,11.8h-3v1.5h-1.5V9.8h1.5v2.2h3V9.8h1.5v3.5h-1.5V11.8z M42.3,15.3h-4.5V13.8h4.5V15.3z M42.3,13.8h-4.5v-1.5h4.5V13.8z M44.8,13.8h-1.5V9.8h1.5V8.3h1.5v1.5h1.5V9.8h-1.5v4h1.5v1.5h-4.5V13.8z M52.3,13.8h-4.5V12.3h4.5V13.8z M52.3,12.3h-4.5v-1.5h4.5V12.3z M54.8,12.3h-1.5v-1.5h1.5V12.3z M60.3,11.8h-3v1.5h-1.5V9.8h1.5v2.2h3V9.8h1.5v3.5h-1.5V11.8z M68.8,13.8h-4.5V12.3h4.5V13.8z M68.8,12.3h-4.5v-1.5h4.5V12.3z M71.3,12.3h-1.5v-1.5h1.5V12.3z M74.8,13.8H73V9.8h1.5V8.3h1.5v1.5h1.5V9.8h-1.5v4h1.5v1.5H74.8V13.8z M82.3,13.8h-4.5V12.3h4.5V13.8z M82.3,12.3h-4.5v-1.5h4.5V12.3z M84.8,12.3h-1.5v-1.5h1.5V12.3z M90.3,11.8h-3v1.5h-1.5V9.8h1.5v2.2h3V9.8h1.5v3.5h-1.5V11.8z M98.8,13.8h-4.5V12.3h4.5V13.8z M98.8,12.3h-4.5v-1.5h4.5V12.3z M101.3,12.3h-1.5v-1.5h1.5V12.3z M107.8,11.8h-3v1.5h-1.5V9.8h1.5v2.2h3V9.8h1.5v3.5h-1.5V11.8z M115.3,13.8h-4.5V12.3h4.5V13.8z M115.3,12.3h-4.5v-1.5h4.5V12.3z M117.8,12.3h-1.5v-1.5h1.5V12.3z M121.3,13.8H119V9.8h1.5V8.3h1.5v1.5h1.5V9.8h-1.5v4h1.5v1.5H121.3V13.8z M128.8,13.8h-4.5V12.3h4.5V13.8z M128.8,12.3h-4.5v-1.5h4.5V12.3z M131.3,12.3h-1.5v-1.5h1.5V12.3z M136.8,11.8h-3v1.5h-1.5V9.8h1.5v2.2h3V9.8h1.5v3.5h-1.5V11.8z" />
</svg>
